<?xml version="1.0" encoding="UTF-8"?>
<svg width="23px" height="37px" viewBox="0 0 23 37" version="1.1" xmlns="http://www.w3.org/2000/svg" xmlns:xlink="http://www.w3.org/1999/xlink">
    <!-- Generator: Sketch 43.2 (39069) - http://www.bohemiancoding.com/sketch -->
    <title>icecream</title>
    <desc>Created with Sketch.</desc>
    <defs></defs>
    <g id="Page-1" stroke="none" stroke-width="1" fill="none" fill-rule="evenodd">
        <g id="createneworder" transform="translate(-1019.000000, -654.000000)" fill="#535353">
            <g id="icecream" transform="translate(1019.000000, 654.000000)">
                <path d="M9.381905,35.838385 C9.663105,36.539535 10.343905,37.000185 11.100555,37.000185 C11.855355,37.000185 12.536155,36.539535 12.817355,35.838385 L19.753005,18.500185 L2.446255,18.500185 L9.381905,35.838385 Z" id="Fill-802"></path>
                <path d="M11.1,0.000925 C4.9691,0.000925 0,4.971875 0,11.100925 L0,12.950925 C0,14.995175 1.65575,16.650925 3.7,16.650925 C5.74425,16.650925 7.4,14.995175 7.4,12.950925 C7.4,14.995175 9.05575,16.650925 11.1,16.650925 C13.14425,16.650925 14.8,14.995175 14.8,12.950925 C14.8,14.995175 16.45575,16.650925 18.5,16.650925 C20.54425,16.650925 22.2,14.995175 22.2,12.950925 L22.2,11.100925 C22.2,4.971875 17.2309,0.000925 11.1,0.000925" id="Fill-803"></path>
            </g>
        </g>
    </g>
</svg>