<?xml version="1.0" encoding="UTF-8"?>
<svg width="272px" height="24px" viewBox="0 0 272 24" version="1.1" xmlns="http://www.w3.org/2000/svg" xmlns:xlink="http://www.w3.org/1999/xlink">
    <!-- Generator: Sketch 43.2 (39069) - http://www.bohemiancoding.com/sketch -->
    <title>anlab_logo</title>
    <desc>Created with Sketch.</desc>
    <defs></defs>
    <g id="Symbols" stroke="none" stroke-width="1" fill="none" fill-rule="evenodd">
        <g id="header" transform="translate(-112.000000, -16.000000)" fill="#535353">
            <g id="Anlab-Logo-Copy">
                <g transform="translate(112.000000, 15.000000)">
                    <g id="anlab_logo" transform="translate(0.000000, 0.727273)">
                        <path d="M60.5679337,7.09818422 L60.5679337,7.09818422 C60.6718556,7.7694981 61.7007851,12.5875209 61.7007851,12.5875209 L59.4422849,12.5875209 L60.5679337,7.09818422 Z M51.999009,18.3002903 L57.9729736,18.3002903 L58.4236447,16.3218947 L62.6875285,16.3218947 L63.2565265,18.3002903 L69.230491,18.3002903 L63.6351725,2.5543744 L57.3720788,2.5543744 L51.999009,18.3002903 Z" id="Shape" fill-rule="nonzero"></path>
                        <path d="M37.3336772,2.55335879 L43.1203766,2.55335879 C48.3751194,2.55335879 52.3879444,4.86588784 52.3879444,10.6517807 C52.3879444,15.3144161 49.1159486,18.2982591 44.5217785,18.2982591 L37.3336772,18.2891186 L37.3336772,2.55335879 Z M43.0174836,13.7778081 L43.4043611,13.7778081 C45.3006781,13.7778081 46.7041379,12.6880656 46.7041379,10.6334998 C46.7041379,8.42049991 45.4591333,7.18552612 43.37658,7.18552612 L43.0174836,7.18552612 L43.0174836,13.7778081 Z" id="Shape" fill-rule="nonzero"></path>
                        <path d="M33.8939659,3.04694207 L34.1985291,5.63165284 C34.2715831,6.24507733 34.636853,7.71567112 34.1872108,7.51864405 C33.9032263,7.39575603 33.6706882,6.73053578 33.440208,6.13742336 C33.3229101,5.83782034 32.7631724,4.41597552 32.6160355,4.31035276 C31.9112188,3.80153543 30.1455758,3.22975069 28.9520177,3.22467267 C25.329157,3.21146983 22.935867,5.77282172 22.935867,10.3156159 C22.935867,13.5736718 24.5636334,17.4867919 28.7050746,17.4867919 C30.187762,17.4867919 33.0276073,17.035864 33.8003334,15.0137975 C34.1491404,14.0987388 34.4691375,13.2832092 34.7016756,13.5320321 C34.8724779,13.7107783 34.6502291,14.4450596 34.5473362,14.8401293 C34.0596236,16.7159489 34.0318425,17.2836712 33.878532,17.3578103 C32.0079382,18.2566193 29.6084747,18.5531755 27.5084296,18.5531755 C20.8358219,18.5531755 18.529991,14.8188016 18.529991,11.0854434 C18.529991,4.60690897 22.6786346,1.92368466 29.1135596,2.15727345 C30.7392682,2.21617845 32.3680635,2.496485 33.8939659,3.04694207" id="Shape" fill-rule="nonzero"></path>
                        <path d="M14.1827639,3.33435784 L13.1137062,2.97686543 C12.7535809,2.66609078 13.1908759,2.57976448 13.1908759,2.57976448 C13.1908759,2.57976448 14.7342701,2.85499302 18.5824664,2.54320276 C18.5824664,2.54320276 18.9199552,2.60617017 18.6884461,2.86718026 L17.4249207,3.38615362 C16.603835,3.72942759 16.603835,3.53138491 16.603835,4.39566345 L16.5966325,12.4199463 C16.5966325,18.69536 9.93945876,18.5541911 8.64300762,18.5541911 C8.02564993,18.5541911 1.96731316,18.5541911 1.96731316,13.5157824 L1.96731316,5.02330638 C1.96731316,3.54052534 2.13091295,3.58216509 1.619535,3.40748129 L0.0730539929,2.8509306 C0.0730539929,2.8509306 -0.188294094,2.4975006 0.27678203,2.51882828 C1.5392785,2.57976448 3.36768618,2.83975897 7.616136,2.54320276 C7.616136,2.54320276 7.98860847,2.62952905 7.74475218,2.89053914 L6.50900788,3.23482871 C5.53152487,3.65528853 5.66014106,3.33435784 5.63544675,4.29613431 L5.66425678,12.6718159 C5.66425678,14.7253661 6.76521132,17.2674216 10.1864018,17.2674216 C14.9040435,17.2674216 14.9472585,13.3532859 14.9472585,12.4839293 L14.9565189,4.18949595 C15.0069364,3.40748129 14.9030146,3.62989845 14.1827639,3.33435784" id="Shape" fill-rule="nonzero"></path>
                        <path d="M90.1856688,17.0907066 L91.8319559,12.9145452 L92.1210851,13.1491496 C93.1314939,13.9413203 94.5051147,14.6146653 95.799508,14.6420866 C96.9580826,14.6654455 97.5229649,14.3699049 97.3706833,13.4325029 C97.2533853,12.7276741 96.4281839,12.6068173 95.9126902,12.5072882 L94.7788099,12.2909647 C92.5738141,11.8958949 90.7227699,10.5928757 90.7227699,8.12394371 C90.7227699,4.38956983 94.0791379,2.29742672 97.4560844,2.29742672 C99.2309878,2.29742672 100.856696,2.72804259 102.380541,3.67864741 L100.9493,7.38153759 C100.165256,6.84022095 98.9768422,6.07648716 97.4756341,6.02367578 C96.9786612,6.00539491 95.8488966,6.25624897 96.2100509,7.3561475 C96.3664481,7.82535629 97.0671491,8.02339897 97.4982706,8.1229281 L98.775172,8.41948431 C101.166404,8.95369172 102.892948,10.2577266 102.892948,12.9206388 C102.892948,16.6773559 99.5170302,18.5359103 96.1616912,18.5359103 C94.2046673,18.5359103 91.9369067,18.0006872 90.1856688,17.0907066" id="Shape" fill-rule="nonzero"></path>
                        <rect id="Rectangle-path" fill-rule="nonzero" x="83.3216802" y="2.5543744" width="5.64985176" height="15.7459159"></rect>
                        <polygon id="Shape" fill-rule="nonzero" points="76.8435402 2.55335879 82.7300458 2.55335879 76.7169819 18.2982591 71.9396623 18.2982591 65.9440903 2.55335879 71.813104 2.55335879 74.3267787 12.0543291"></polygon>
                        <path d="M134.432,18.2727273 L132.716,18.2727273 L131,14.0087273 L121.822,14.0087273 L120.106,18.2727273 L118.39,18.2727273 L125.488,0.930727273 L127.334,0.930727273 L134.432,18.2727273 Z M130.506,12.6567273 L126.398,2.51672727 L122.316,12.6567273 L130.506,12.6567273 Z M146.756,18.2727273 L146.756,9.48472727 C146.756,6.65072727 145.352,5.40272727 142.804,5.40272727 C140.984,5.40272727 139.19,6.52072727 138.28,7.61272727 L138.28,5.71472727 L136.928,5.71472727 L136.928,18.2727273 L138.28,18.2727273 L138.28,8.78272727 C139.086,7.63872727 140.75,6.62472727 142.362,6.62472727 C144.182,6.62472727 145.404,7.35272727 145.404,9.77072727 L145.404,18.2727273 L146.756,18.2727273 Z M160.302,18.2727273 L158.95,18.2727273 L158.95,16.7907273 C157.832,18.0127273 156.428,18.5847273 154.686,18.5847273 C152.528,18.5847273 150.292,17.1027273 150.292,14.3987273 C150.292,11.6687273 152.502,10.2387273 154.686,10.2387273 C156.428,10.2387273 157.858,10.8107273 158.95,12.0327273 L158.95,9.48472727 C158.95,7.61272727 157.442,6.59872727 155.57,6.59872727 C154.01,6.59872727 152.788,7.14472727 151.644,8.44472727 L150.89,7.50872727 C152.19,6.10472727 153.646,5.40272727 155.726,5.40272727 C158.274,5.40272727 160.302,6.62472727 160.302,9.43272727 L160.302,18.2727273 Z M155.154,17.5187273 C156.662,17.5187273 158.066,16.9467273 158.95,15.8027273 L158.95,13.0467273 C158.066,11.9027273 156.662,11.3047273 155.154,11.3047273 C153.074,11.3047273 151.722,12.6307273 151.722,14.4247273 C151.722,16.1927273 153.074,17.5187273 155.154,17.5187273 Z M165.866,18.2727273 L165.866,0.930727273 L164.514,0.930727273 L164.514,18.2727273 L165.866,18.2727273 Z M169.246,23.1867273 C169.584,23.2907273 170.156,23.3687273 170.572,23.3687273 C172.054,23.3687273 173.12,22.6147273 173.796,21.0287273 L180.296,5.71472727 L178.762,5.71472727 L174.238,16.6867273 L169.662,5.71472727 L168.154,5.71472727 L173.458,18.3767273 L172.47,20.6127273 C171.976,21.8087273 171.404,22.1467273 170.572,22.1467273 C170.26,22.1467273 169.766,22.0687273 169.48,21.9387273 L169.246,23.1867273 Z M185.314,18.5847273 C186.354,18.5847273 186.952,18.2727273 187.446,17.8047273 L186.926,16.7647273 C186.64,17.0767273 186.12,17.3627273 185.522,17.3627273 C184.638,17.3627273 184.222,16.6607273 184.222,15.6467273 L184.222,6.91072727 L186.77,6.91072727 L186.77,5.71472727 L184.222,5.71472727 L184.222,2.28272727 L182.844,2.28272727 L182.844,5.71472727 L180.764,5.71472727 L180.764,6.91072727 L182.844,6.91072727 L182.844,15.8547273 C182.844,17.5707273 183.65,18.5847273 185.314,18.5847273 Z M190.41,3.73872727 C190.982,3.73872727 191.45,3.27072727 191.45,2.69872727 C191.45,2.12672727 190.982,1.68472727 190.41,1.68472727 C189.864,1.68472727 189.37,2.12672727 189.37,2.69872727 C189.37,3.27072727 189.864,3.73872727 190.41,3.73872727 Z M191.086,18.2727273 L191.086,5.71472727 L189.734,5.71472727 L189.734,18.2727273 L191.086,18.2727273 Z M200.68,18.5847273 C202.864,18.5847273 204.112,17.7267273 205.126,16.4267273 L204.19,15.5947273 C203.28,16.8427273 202.136,17.3627273 200.758,17.3627273 C197.82,17.3627273 196.026,14.9967273 196.026,11.9807273 C196.026,8.96472727 197.82,6.62472727 200.758,6.62472727 C202.136,6.62472727 203.28,7.11872727 204.19,8.36672727 L205.126,7.53472727 C204.112,6.26072727 202.864,5.40272727 200.68,5.40272727 C196.988,5.40272727 194.57,8.31472727 194.57,11.9807273 C194.57,15.6467273 196.988,18.5847273 200.68,18.5847273 Z M217.476,18.2727273 L216.124,18.2727273 L216.124,16.7907273 C215.006,18.0127273 213.602,18.5847273 211.86,18.5847273 C209.702,18.5847273 207.466,17.1027273 207.466,14.3987273 C207.466,11.6687273 209.676,10.2387273 211.86,10.2387273 C213.602,10.2387273 215.032,10.8107273 216.124,12.0327273 L216.124,9.48472727 C216.124,7.61272727 214.616,6.59872727 212.744,6.59872727 C211.184,6.59872727 209.962,7.14472727 208.818,8.44472727 L208.064,7.50872727 C209.364,6.10472727 210.82,5.40272727 212.9,5.40272727 C215.448,5.40272727 217.476,6.62472727 217.476,9.43272727 L217.476,18.2727273 Z M212.328,17.5187273 C213.836,17.5187273 215.24,16.9467273 216.124,15.8027273 L216.124,13.0467273 C215.24,11.9027273 213.836,11.3047273 212.328,11.3047273 C210.248,11.3047273 208.896,12.6307273 208.896,14.4247273 C208.896,16.1927273 210.248,17.5187273 212.328,17.5187273 Z M223.04,18.2727273 L223.04,0.930727273 L221.688,0.930727273 L221.688,18.2727273 L223.04,18.2727273 Z M243.918,18.2727273 L243.918,16.9207273 L235.52,16.9207273 L235.52,0.930727273 L234.038,0.930727273 L234.038,18.2727273 L243.918,18.2727273 Z M255.982,18.2727273 L254.63,18.2727273 L254.63,16.7907273 C253.512,18.0127273 252.108,18.5847273 250.366,18.5847273 C248.208,18.5847273 245.972,17.1027273 245.972,14.3987273 C245.972,11.6687273 248.182,10.2387273 250.366,10.2387273 C252.108,10.2387273 253.538,10.8107273 254.63,12.0327273 L254.63,9.48472727 C254.63,7.61272727 253.122,6.59872727 251.25,6.59872727 C249.69,6.59872727 248.468,7.14472727 247.324,8.44472727 L246.57,7.50872727 C247.87,6.10472727 249.326,5.40272727 251.406,5.40272727 C253.954,5.40272727 255.982,6.62472727 255.982,9.43272727 L255.982,18.2727273 Z M250.834,17.5187273 C252.342,17.5187273 253.746,16.9467273 254.63,15.8027273 L254.63,13.0467273 C253.746,11.9027273 252.342,11.3047273 250.834,11.3047273 C248.754,11.3047273 247.402,12.6307273 247.402,14.4247273 C247.402,16.1927273 248.754,17.5187273 250.834,17.5187273 Z M261.546,15.1267273 C262.274,16.3227273 263.938,17.3627273 265.68,17.3627273 C268.488,17.3627273 270.074,15.0487273 270.074,12.0067273 C270.074,8.96472727 268.488,6.62472727 265.68,6.62472727 C263.938,6.62472727 262.274,7.71672727 261.546,8.91272727 L261.546,15.1267273 Z M261.546,18.2727273 L260.194,18.2727273 L260.194,0.930727273 L261.546,0.930727273 L261.546,7.74272727 C262.56,6.31272727 264.146,5.40272727 265.914,5.40272727 C269.268,5.40272727 271.53,8.02872727 271.53,12.0067273 C271.53,16.0367273 269.242,18.5847273 265.914,18.5847273 C264.042,18.5847273 262.43,17.5707273 261.546,16.2707273 L261.546,18.2727273 Z" id="Analytical-Lab"></path>
                    </g>
                </g>
            </g>
        </g>
    </g>
</svg>