<?xml version="1.0" encoding="UTF-8"?>
<svg width="40px" height="37px" viewBox="0 0 40 37" version="1.1" xmlns="http://www.w3.org/2000/svg" xmlns:xlink="http://www.w3.org/1999/xlink">
    <!-- Generator: Sketch 43.2 (39069) - http://www.bohemiancoding.com/sketch -->
    <title>compost</title>
    <desc>Created with Sketch.</desc>
    <defs></defs>
    <g id="Page-1" stroke="none" stroke-width="1" fill="none" fill-rule="evenodd">
        <g id="createneworder" transform="translate(-746.000000, -857.000000)" fill="#535353">
            <g id="samplenumber" transform="translate(152.000000, 539.000000)">
                <g id="water_card" transform="translate(256.000000, 64.000000)">
                    <g id="compost" transform="translate(338.000000, 254.000000)">
                        <path d="M18.1240103,8.51198972 C21.0820103,8.51198972 25.3700103,9.33998972 27.9040103,9.89398972 C25.7740103,12.9179897 22.1460103,17.5099897 19.6860103,18.4299897 C17.5660103,19.2199897 15.1660103,18.4179897 13.8120103,16.7139897 L21.1320103,13.9819897 L20.0840103,11.1719897 L12.7480103,13.9079897 C12.5980103,11.4699897 14.1740103,8.51198972 18.1240103,8.51198972 L18.1240103,8.51198972 Z M6.53801028,19.4259897 L10.9000103,17.7979897 C12.9120103,21.1179897 17.0000103,22.6359897 20.7360103,21.2399897 C25.2380103,19.5579897 30.9920103,10.7339897 31.6320103,9.73398972 L32.7580103,7.97998972 L30.7360103,7.46998972 C30.4200103,7.38998972 22.9140103,5.51198972 18.1240103,5.51198972 C12.0660103,5.51198972 9.07201028,10.5579897 9.84601028,14.9899897 L5.48801028,16.6159897 L6.53801028,19.4259897 Z" id="Fill-633" transform="translate(19.123010, 13.635000) rotate(-90.000000) translate(-19.123010, -13.635000) "></path>
                        <path d="M0.999,36.001 L38.999,36.001 L38.999,26.001 C16.999,26.001 0.999,34.001 0.999,36.001" id="Fill-603" stroke="#FFFFFF" stroke-width="2"></path>
                    </g>
                </g>
            </g>
        </g>
    </g>
</svg>