<?xml version="1.0" encoding="UTF-8"?>
<svg width="47px" height="35px" viewBox="0 0 47 35" version="1.1" xmlns="http://www.w3.org/2000/svg" xmlns:xlink="http://www.w3.org/1999/xlink">
    <title>misc</title>
    <g id="old" stroke="none" stroke-width="1" fill="none" fill-rule="evenodd">
        <g id="createneworder" transform="translate(-50, -638)" fill="#535353">
            <g id="misc" transform="translate(50, 638)">
                <path d="M19.5833333,6.80563117 C19.5833333,3.04503383 16.5165833,0 12.7291667,0 C8.94370833,0 5.875,3.04503383 5.875,6.80563117 L5.875,11.6667963 L19.5833333,11.6667963 L19.5833333,6.80563117 Z" id="Fill-544"></path>
                <polygon id="Fill-545" points="19.5833333 13.6108735 5.875 13.6108735 5.875 21.3887377 19.5833333 21.3887377"></polygon>
                <path d="M29.375,23.3332037 L37.2083333,23.3332037 L37.2083333,31.1110679 L29.375,31.1110679 L29.375,23.3332037 Z M43.0833333,31.1110679 L43.0833333,18.6023178 C43.0833333,17.9178658 42.7210417,17.2859143 42.1335417,16.9339659 L34.3002083,12.2672474 C33.6794167,11.8977989 32.9039167,11.8977989 32.283125,12.2672474 L24.4497917,16.9339659 C23.8622917,17.2859143 23.5,17.9178658 23.5,18.6023178 L23.5,31.1110679 L19.5833333,31.1110679 L19.5833333,23.3332037 L5.875,23.3332037 L5.875,31.1110679 L0,31.1110679 L0,35 L47,35 L47,31.1110679 L43.0833333,31.1110679 Z" id="Fill-546"></path>
            </g>
        </g>
    </g>
</svg>