<?xml version="1.0" encoding="UTF-8"?>
<svg width="50px" height="10px" viewBox="0 0 50 10" version="1.1" xmlns="http://www.w3.org/2000/svg" xmlns:xlink="http://www.w3.org/1999/xlink">
    <title>misc</title>
    <g id="old" stroke="none" stroke-width="1" fill="none" fill-rule="evenodd">
        <g id="createneworder" transform="translate(-47, -694)" fill="#535353">
            <g id="misc" transform="translate(47, 694.2497)">
                <circle id="Oval-4-Copy" cx="32.5" cy="5.25031957" r="4.5"></circle>
                <circle id="Oval-4-Copy-3" cx="4.5" cy="5.25031957" r="4.5"></circle>
                <circle id="Oval-4-Copy-2" cx="18.5" cy="5.25031957" r="4.5"></circle>
                <path d="M43.8599282,9.75627098 C44.2113083,10.081243 44.7805446,10.081243 45.1319247,9.75627098 L48.7319147,6.4226932 C48.9726979,6.21493287 49.0718128,5.90203775 48.9903766,5.6067568 C48.9089405,5.31147585 48.6599416,5.0809038 48.3410625,5.00549423 C48.0221833,4.93008465 47.6842823,5.02186472 47.4599182,5.24482905 L45.395924,7.15608031 L45.395924,0.833394446 C45.395924,0.373123403 44.9929814,0 44.4959265,0 C43.9988716,0 43.595929,0.373123403 43.595929,0.833394446 L43.595929,7.15608031 L41.5319347,5.24482905 C41.177324,4.93885232 40.6247256,4.94788074 40.281992,5.26525077 C39.9392585,5.58262079 39.9295085,6.09432495 40.2599382,6.4226932 L43.8599282,9.75627098 L43.8599282,9.75627098 Z" id="Path" transform="translate(44.5184, 5) rotate(-90) translate(-44.5184, -5)"></path>
            </g>
        </g>
    </g>
</svg>